<svg version="1.0" xmlns="http://www.w3.org/2000/svg"
 width="296.000000pt" height="296.000000pt" viewBox="0 0 296.000000 296.000000"
 preserveAspectRatio="xMidYMid meet">
<rect fill="#fff" height="100%" width="100%" />
<g transform="translate(0.000000,296.000000) scale(0.100000,-0.100000)"
fill="#000000" stroke="none">
<path d="M570 2790 c-11 -11 -23 -32 -26 -47 -14 -56 49 -114 104 -95 25 8 35
2 126 -82 98 -88 100 -91 97 -131 -4 -64 51 -104 114 -82 17 6 44 -13 135 -94
l115 -101 -3 -42 c-3 -37 0 -46 26 -68 l29 -25 8 -185 7 -186 -25 -17 c-14 -9
-31 -30 -37 -46 -11 -25 -10 -36 3 -64 9 -18 25 -36 36 -40 20 -6 21 -13 21
-192 l0 -187 -32 -26 c-59 -49 -37 -131 39 -146 27 -5 37 -1 63 24 41 41 41
84 0 122 l-31 29 -6 185 c-5 142 -3 186 6 186 23 0 61 49 61 78 0 32 -34 82
-55 82 -12 0 -15 36 -17 191 l-3 191 26 14 c32 16 52 65 40 97 -16 42 -46 60
-93 55 -42 -4 -45 -3 -156 96 -99 87 -113 104 -109 126 3 14 -1 39 -8 57 -15
36 -45 48 -97 41 -29 -5 -43 4 -130 80 -93 81 -98 87 -92 118 7 36 -15 88 -41
98 -32 12 -75 6 -95 -14z m100 -10 c24 -24 26 -77 3 -102 -20 -22 -70 -23 -95
-1 -41 37 -9 123 47 123 14 0 34 -9 45 -20z m327 -302 c45 -42 15 -118 -48
-118 -30 0 -69 40 -69 70 0 10 9 29 21 44 25 32 64 34 96 4z m360 -320 c46
-43 16 -118 -46 -118 -33 0 -71 39 -71 72 0 26 44 68 71 68 13 0 33 -10 46
-22z m12 -554 c27 -35 26 -59 -4 -89 -45 -46 -115 -19 -115 45 0 65 79 94 119
44z m-4 -539 c30 -30 31 -54 4 -89 -24 -31 -72 -35 -101 -9 -28 25 -24 77 8
102 35 27 59 26 89 -4z"/>
<path d="M2265 2798 c-36 -21 -46 -41 -42 -86 5 -42 4 -42 -87 -127 -87 -79
-95 -84 -128 -79 -27 5 -40 1 -64 -19 -23 -21 -29 -32 -28 -66 1 -40 -2 -44
-108 -142 -103 -95 -110 -99 -143 -93 -76 14 -120 -100 -56 -147 l29 -21 -5
-187 c-5 -179 -6 -187 -29 -209 -44 -42 -41 -106 7 -140 18 -12 19 -27 19
-197 l0 -183 -30 -30 c-38 -39 -40 -83 -5 -117 63 -64 162 10 123 92 -7 15
-23 32 -36 38 -22 10 -22 13 -22 192 l0 182 32 30 c43 40 45 93 5 127 l-27 23
0 187 0 186 31 29 c27 25 30 34 27 72 l-3 44 103 96 c102 96 103 97 145 91 62
-9 91 17 92 81 1 47 3 50 92 135 85 81 93 86 127 82 91 -11 126 111 45 153
-33 18 -38 18 -64 3z m77 -25 c39 -35 10 -123 -42 -123 -29 0 -70 44 -70 75 0
54 71 85 112 48z m-293 -317 c27 -58 -28 -123 -81 -95 -30 16 -38 28 -38 63 0
43 27 68 69 64 28 -2 39 -9 50 -32z m-345 -308 c24 -34 20 -73 -10 -97 -15
-12 -32 -21 -39 -21 -7 0 -24 9 -39 21 -31 24 -35 72 -9 101 23 26 78 24 97
-4z m-31 -529 c30 -16 37 -28 37 -66 0 -43 -24 -65 -69 -61 -28 2 -39 9 -49
31 -17 35 -4 77 29 94 29 15 26 15 52 2z m19 -556 c27 -24 24 -87 -4 -107 -32
-22 -55 -20 -83 9 -30 30 -31 54 -4 89 24 30 63 34 91 9z"/>
<path d="M459 2531 c-38 -39 -38 -74 1 -113 27 -26 36 -30 68 -24 34 5 43 1
97 -44 55 -44 60 -52 61 -89 0 -29 7 -48 25 -67 21 -23 29 -25 72 -20 47 5 50
4 115 -50 62 -51 67 -58 68 -96 1 -77 87 -116 139 -63 26 25 33 72 15 104 -15
29 -64 45 -100 32 -29 -10 -35 -7 -100 46 -66 54 -70 59 -70 99 0 35 -5 47
-31 68 -33 28 -45 31 -83 16 -22 -8 -33 -3 -85 41 -54 45 -60 53 -54 79 8 45
-4 78 -37 95 -43 22 -68 19 -101 -14z m85 8 c13 -7 30 -25 37 -41 10 -25 9
-33 -8 -56 -25 -33 -76 -41 -104 -16 -29 26 -25 78 7 103 31 24 35 25 68 10z
m273 -241 c30 -28 29 -63 -2 -93 -30 -30 -54 -31 -89 -4 -30 24 -34 63 -10 97
20 29 70 29 101 0z m283 -228 c25 -25 26 -61 3 -88 -60 -71 -161 10 -107 86
20 29 76 30 104 2z"/>
<path d="M1265 2358 c114 -112 211 -205 216 -206 5 -2 89 74 187 169 97 95
193 187 212 206 l35 33 -429 0 -428 0 207 -202z"/>
<path d="M2340 2523 c-15 -20 -20 -38 -18 -61 4 -30 -2 -40 -51 -87 -53 -51
-58 -54 -96 -48 -34 4 -44 1 -64 -21 -17 -18 -25 -38 -25 -64 -1 -33 -9 -44
-64 -95 -57 -53 -66 -57 -96 -51 -47 8 -74 -2 -92 -37 -27 -54 -1 -109 58
-124 22 -6 33 -1 59 24 26 27 31 37 26 65 -5 31 -1 38 63 95 63 56 71 60 94
50 55 -25 114 28 103 94 -5 32 -1 38 52 85 46 40 62 49 84 45 43 -8 75 5 93
38 43 85 -68 166 -126 92z m98 1 c31 -21 31 -87 0 -108 -12 -9 -32 -16 -44
-16 -25 0 -64 43 -64 70 0 27 39 70 64 70 12 0 32 -7 44 -16z m-233 -229 c14
-13 25 -36 25 -50 0 -54 -71 -85 -112 -48 -24 22 -24 77 2 103 27 27 56 25 85
-5z m-267 -222 c49 -42 24 -123 -37 -123 -59 0 -88 84 -42 122 29 23 53 23 79
1z"/>
<path d="M1080 1493 c0 -203 -4 -374 -9 -381 -5 -8 -17 -12 -27 -10 -18 3 -19
16 -22 171 l-2 167 -30 0 -30 0 0 -149 c0 -200 13 -231 94 -231 25 0 40 7 55
26 20 26 21 37 21 400 l0 374 -25 0 -25 0 0 -367z"/>
<path d="M1863 1848 c-34 -17 -47 -69 -40 -172 6 -84 10 -98 59 -196 l53 -105
0 -135 c0 -125 -1 -135 -19 -138 -37 -8 -46 24 -46 163 0 130 0 132 -22 130
-23 -2 -23 -4 -23 -147 0 -129 2 -148 19 -167 27 -30 98 -29 126 1 18 20 20
35 20 154 0 141 -8 180 -55 254 -40 64 -56 116 -62 210 -4 67 -2 89 10 105 13
16 19 18 34 9 15 -9 18 -28 21 -123 3 -111 3 -111 27 -111 l25 0 0 115 c0 110
-1 117 -25 140 -26 27 -64 31 -102 13z"/>
<path d="M1290 634 c-11 -12 -10 -18 3 -31 8 -9 23 -13 31 -10 21 8 21 43 0
51 -21 8 -20 8 -34 -10z"/>
<path d="M1100 570 c0 -38 -2 -40 -30 -40 -23 0 -30 -5 -30 -19 0 -14 8 -21
28 -23 l27 -3 5 -120 c3 -66 9 -126 13 -133 12 -19 56 -34 78 -27 30 10 24 43
-8 47 l-28 3 0 115 0 115 28 3 c19 2 27 9 27 23 0 14 -7 19 -30 19 -28 0 -30
2 -30 40 0 36 -2 40 -25 40 -22 0 -25 -4 -25 -40z"/>
<path d="M485 525 c-41 -15 -75 -47 -75 -71 0 -23 41 -16 62 11 39 50 128 25
128 -37 0 -24 -3 -26 -65 -30 -78 -5 -116 -28 -129 -82 -12 -47 13 -85 70
-105 39 -13 55 -10 127 27 4 2 7 -3 7 -12 0 -10 9 -16 23 -16 22 0 22 1 19
127 -4 131 -12 162 -49 181 -35 19 -79 21 -118 7z m115 -204 c0 -48 -26 -71
-79 -71 -60 0 -91 49 -53 82 20 19 44 25 95 27 37 1 37 1 37 -38z"/>
<path d="M850 529 c-13 -6 -33 -17 -42 -26 -17 -15 -18 -15 -18 5 0 17 -6 22
-25 22 l-25 0 0 -160 0 -160 25 0 25 0 0 115 c0 110 1 117 25 140 30 31 84 34
108 7 14 -15 17 -41 17 -140 l0 -122 25 0 25 0 0 125 c0 143 -10 176 -61 194
-38 13 -46 13 -79 0z"/>
<path d="M1516 530 c-64 -20 -96 -73 -96 -163 0 -50 5 -72 23 -98 30 -46 87
-73 134 -64 36 6 103 61 103 84 0 20 -39 11 -64 -14 -33 -33 -88 -34 -120 -2
-46 46 -42 168 7 202 43 30 110 14 127 -31 12 -30 50 -34 50 -5 0 30 -48 79
-88 91 -42 11 -37 11 -76 0z"/>
<path d="M1836 530 c-64 -20 -96 -73 -96 -162 0 -105 50 -162 141 -162 87 0
139 62 139 164 0 75 -24 119 -80 148 -47 24 -59 25 -104 12z m105 -69 c26 -26
29 -36 29 -89 0 -50 -4 -66 -26 -91 -21 -25 -33 -31 -65 -31 -71 0 -112 74
-89 160 22 82 95 107 151 51z"/>
<path d="M2183 520 c-27 -16 -33 -17 -33 -5 0 9 -10 15 -25 15 l-25 0 0 -160
0 -160 25 0 25 0 0 124 c0 118 1 126 22 140 12 9 35 16 51 16 24 0 28 4 25 22
-4 30 -26 33 -65 8z"/>
<path d="M2371 518 c-57 -30 -81 -74 -81 -151 0 -61 9 -87 43 -125 44 -48 142
-49 199 -3 18 16 21 22 10 32 -10 11 -18 10 -41 -4 -45 -26 -100 -22 -133 10
-15 15 -28 37 -28 50 0 23 2 23 111 23 l110 0 -7 48 c-17 118 -92 167 -183
120z m99 -38 c21 -11 44 -70 32 -82 -5 -5 -42 -8 -83 -6 -86 3 -96 16 -54 67
28 33 68 41 105 21z"/>
<path d="M1290 370 l0 -160 25 0 25 0 0 160 0 160 -25 0 -25 0 0 -160z"/>
</g>
</svg>
